# xmcd
#
# Track frame offsets:
#	150
#	22309
#	37985
#	57730
#	79768
#	112262
#	125853
#	142154
#	157489
#	170471
#	180608
#	195784
#
# Disc length: 2810 seconds
#
# Revision: 1
# Processed by: cddbd v1.5PL3 Copyright (c) Steve Scherf et al.
# Submitted via: EasyCDDAExtractor 7.0.5.1
#
DISCID=b80af80c
DTITLE=Chris Cain - Somewhere Along The Way
DYEAR=1995
DGENRE=Blues
TTITLE0=Street of Broken Dreams
TTITLE1=Steppin' on a Highwire
TTITLE2=Don't Let the Same Dog Bite You Twice
TTITLE3=One This Fine Morning
TTITLE4=Trouble Makin' Woman
TTITLE5=Movin' Back to Memphis
TTITLE6=Know Who Can You Trust
TTITLE7=My Baby's Got It
TTITLE8=Before The Rooster Crows
TTITLE9=At The Club
TTITLE10=Skeletons in Her Closet
TTITLE11=Somewhere Along The Way
EXTD=
EXTT0=
EXTT1=
EXTT2=
EXTT3=
EXTT4=
EXTT5=
EXTT6=
EXTT7=
EXTT8=
EXTT9=
EXTT10=
EXTT11=
PLAYORDER=
